<svg width="98" height="78" viewBox="0 0 98 78" xmlns="http://www.w3.org/2000/svg">
<circle cx="62" cy="36" r="16" fill="#55FF55" />
<path d="M62 12L62 5" stroke="#55FF55" stroke-width="8" stroke-linecap="round" fill="none" />
<path d="M78.97 19.03L83.92 14.08" stroke="#55FF55" stroke-width="8" stroke-linecap="round" fill="none" />
<path d="M86 36L93 36" stroke="#55FF55" stroke-width="8" stroke-linecap="round" fill="none" />
<path d="M19 74 H58 A12 12 0 0 0 60.93 50.36 A20 20 0 0 0 22.49 44.41 A15 15 0 1 0 19 74Z" fill="#000000" stroke="#000000" stroke-width="16" stroke-linejoin="round" />
<path d="M19 74 H58 A12 12 0 0 0 60.93 50.36 A20 20 0 0 0 22.49 44.41 A15 15 0 1 0 19 74Z" fill="#000000" stroke="#55FF55" stroke-width="8" stroke-linejoin="round" />
</svg>
