<svg width="90" height="72" viewBox="0 0 90 72" xmlns="http://www.w3.org/2000/svg">
<circle cx="58" cy="33" r="14" fill="#55AAFF" />
<path d="M58 12L58 6" stroke="#55AAFF" stroke-width="7" stroke-linecap="round" fill="none" />
<path d="M72.85 18.15L77.09 13.91" stroke="#55AAFF" stroke-width="7" stroke-linecap="round" fill="none" />
<path d="M79 33L85 33" stroke="#55AAFF" stroke-width="7" stroke-linecap="round" fill="none" />
<path d="M17.5 68.5 H52.5 A12 12 0 0 0 54.78 44.72 A18 18 0 0 0 20.3 40.78 A14 14 0 1 0 17.5 68.5Z" fill="#000000" stroke="#000000" stroke-width="15" stroke-linejoin="round" />
<path d="M17.5 68.5 H52.5 A12 12 0 0 0 54.78 44.72 A18 18 0 0 0 20.3 40.78 A14 14 0 1 0 17.5 68.5Z" fill="#000000" stroke="#55AAFF" stroke-width="7" stroke-linejoin="round" />
</svg>
