<svg width="68" height="54" viewBox="0 0 68 54" xmlns="http://www.w3.org/2000/svg">
<circle cx="43" cy="25" r="11" fill="#FFAA00" />
<path d="M43 9L43 4" stroke="#FFAA00" stroke-width="5" stroke-linecap="round" fill="none" />
<path d="M54.31 13.69L57.85 10.15" stroke="#FFAA00" stroke-width="5" stroke-linecap="round" fill="none" />
<path d="M59 25L64 25" stroke="#FFAA00" stroke-width="5" stroke-linecap="round" fill="none" />
<path d="M12.5 51.5 H39.5 A9 9 0 0 0 41.9 33.83 A14 14 0 0 0 14.52 31.71 A10 10 0 1 0 12.5 51.5Z" fill="#000000" stroke="#000000" stroke-width="11" stroke-linejoin="round" />
<path d="M12.5 51.5 H39.5 A9 9 0 0 0 41.9 33.83 A14 14 0 0 0 14.52 31.71 A10 10 0 1 0 12.5 51.5Z" fill="#000000" stroke="#FFAA00" stroke-width="5" stroke-linejoin="round" />
</svg>
